<?xml version="1.0" encoding="iso-8859-1"?>
<!-- Generator: Adobe Illustrator 16.0.0, SVG Export Plug-In . SVG Version: 6.00 Build 0)  -->
<!DOCTYPE svg PUBLIC "-//W3C//DTD SVG 1.1//EN" "http://www.w3.org/Graphics/SVG/1.1/DTD/svg11.dtd">
<svg version="1.1" id="Capa_1" xmlns="http://www.w3.org/2000/svg" xmlns:xlink="http://www.w3.org/1999/xlink" x="0px" y="0px"
	 width="167.539px" height="167.539px" viewBox="0 0 167.539 167.539" style="enable-background:new 0 0 167.539 167.539;"
	 xml:space="preserve">
<g>
	<path d="M86.21,43.718L74.928,67.512c4.177,4.566,6.455,10.452,6.455,16.78c0,1.477-1.21,2.699-2.7,2.699
		c-1.49,0-2.7-1.223-2.7-2.699c0-5.506-2.184-10.561-6.146-14.271c-0.856-0.793-1.102-2.069-0.593-3.122l12.089-25.505
		c0.639-1.337,2.252-1.911,3.597-1.284C86.274,40.77,86.843,42.378,86.21,43.718z M167.384,50.024l-30.955,89.153
		c-0.016,0.053-0.079,0.073-0.1,0.126c-0.938,10.695-34.6,13.563-52.556,13.563c-17.956,0-51.629-2.868-52.568-13.563
		c-0.021-0.053-0.077-0.073-0.098-0.126L0.151,50.024c-0.391-1.118-0.005-2.354,0.944-3.056c0.957-0.696,2.251-0.696,3.204,0
		L47.179,78.44c0.949,0.696,1.34,1.928,0.96,3.046c-0.346,1.013-0.512,1.93-0.512,2.806c0,4.846,3.937,8.774,8.775,8.774
		c4.838,0,8.774-3.934,8.774-8.774c0-4.546-3.44-8.277-7.992-8.67c-0.88-0.092-1.669-0.58-2.107-1.35
		c-0.438-0.778-0.475-1.698-0.097-2.507l26.346-55.543c0.448-0.957,1.395-1.55,2.441-1.55s1.993,0.593,2.441,1.55l26.325,55.501
		c0.38,0.809,0.338,1.758-0.116,2.549c-0.459,0.77-1.276,1.258-2.178,1.3c-4.651,0.253-8.295,4.089-8.295,8.72
		c0,4.846,3.939,8.774,8.774,8.774c4.842,0,8.775-3.934,8.775-8.774c0-1.065-0.211-2.137-0.628-3.207
		c-0.448-1.149-0.062-2.457,0.949-3.174l43.464-30.963c0.955-0.686,2.241-0.675,3.186,0.032
		C167.395,47.686,167.78,48.917,167.384,50.024z M131.019,138.855c-0.47-2.911-17.571-8.611-47.245-8.611
		c-29.679,0-46.786,5.7-47.255,8.633c0.501,2.9,17.643,8.596,47.255,8.596C113.379,147.473,130.518,141.777,131.019,138.855z
		 M159.506,56.263l-34.984,24.917c0.237,1.027,0.364,2.066,0.364,3.111c0,7.81-6.365,14.175-14.175,14.175
		c-7.815,0-14.176-6.37-14.176-14.175c0-6.187,4.003-11.502,9.63-13.385L83.769,23.668L61.304,71.031
		c5.477,1.98,9.273,7.159,9.273,13.261c0,7.814-6.362,14.175-14.175,14.175c-7.815,0-14.175-6.365-14.175-14.175
		c0-0.854,0.087-1.709,0.264-2.59L8.092,56.445l23.037,66.332c2.51-1.878,6.41-3.507,11.815-4.904
		c1.447-0.364,2.916,0.501,3.288,1.94c0.374,1.445-0.491,2.911-1.938,3.291c-9.167,2.362-11.15,4.852-11.15,5.336
		c0,0.032-0.016,0.053-0.016,0.085l1.613,4.651c9.089-6.434,33.378-8.332,49.032-8.332c15.646,0,39.941,1.898,49.022,8.332
		l1.613-4.651c0-0.032-0.016-0.053-0.016-0.085c0-0.484-1.962-2.942-11.037-5.315c-1.45-0.369-2.315-1.846-1.931-3.29
		c0.38-1.44,1.856-2.342,3.291-1.926c5.342,1.393,9.197,3.017,11.691,4.868L159.506,56.263z M108.401,114.999
		c-5.162-0.602-10.673-1.008-16.374-1.208c-1.429,0.101-2.736,1.118-2.789,2.595c-0.059,1.498,1.107,2.742,2.6,2.806
		c5.559,0.2,10.921,0.58,15.941,1.171c0.111,0.01,0.211,0.01,0.316,0.01c1.351,0,2.526-1.018,2.679-2.378
		C110.943,116.502,109.877,115.162,108.401,114.999z M75.637,113.802c-5.682,0.2-11.195,0.596-16.374,1.191
		c-1.479,0.18-2.542,1.52-2.37,2.996c0.155,1.381,1.329,2.394,2.679,2.394c0.103,0,0.206-0.011,0.314-0.021
		c5.036-0.58,10.399-0.971,15.939-1.16c1.492-0.059,2.658-1.298,2.605-2.79C78.375,114.92,77.132,113.859,75.637,113.802z"/>
</g>
<g>
</g>
<g>
</g>
<g>
</g>
<g>
</g>
<g>
</g>
<g>
</g>
<g>
</g>
<g>
</g>
<g>
</g>
<g>
</g>
<g>
</g>
<g>
</g>
<g>
</g>
<g>
</g>
<g>
</g>
</svg>
